<?xml version="1.0" standalone="no"?><!DOCTYPE svg PUBLIC "-//W3C//DTD SVG 1.1//EN" "http://www.w3.org/Graphics/SVG/1.1/DTD/svg11.dtd"><svg t="1634494066694" class="icon" viewBox="0 0 1024 1024" version="1.1" xmlns="http://www.w3.org/2000/svg" p-id="3379" xmlns:xlink="http://www.w3.org/1999/xlink" width="200" height="200"><defs><style type="text/css"></style></defs><path d="M826.965333 915.029333l-294.570666-144.064-314.026667 145.216C183.338667 934.784 149.333333 914.453333 149.333333 874.645333V149.333333A64.085333 64.085333 0 0 1 213.376 85.333333h618.581333A63.936 63.936 0 0 1 896 149.354667V874.666667c0 39.936-34.090667 59.989333-69.034667 40.384zM192 149.376v725.269333c0 7.573333-0.32 7.381333 6.4 3.84L522.666667 727.829333a21.333333 21.333333 0 0 1 20.437333 0.234667l304.725333 149.76c6.464 3.626667 5.482667 4.181333 5.482667-3.2V149.376A21.269333 21.269333 0 0 0 831.957333 128H213.376C201.621333 128 192 137.6 192 149.354667zM579.712 362.666667h81.493333c11.84 0 21.461333 9.472 21.461334 21.333333 0 11.776-9.6 21.333333-21.482667 21.333333H554.666667v85.333334h106.517333c11.861333 0 21.482667 9.472 21.482667 21.333333 0 11.776-9.6 21.333333-21.482667 21.333333H554.666667v127.850667c0 11.861333-9.472 21.482667-21.333334 21.482667-11.776 0-21.333333-9.578667-21.333333-21.482667V533.333333h-106.517333A21.354667 21.354667 0 0 1 384 512c0-11.776 9.6-21.333333 21.482667-21.333333H512v-85.333334h-106.517333A21.354667 21.354667 0 0 1 384 384c0-11.776 9.6-21.333333 21.482667-21.333333h81.472l-97.813334-114.133334a21.333333 21.333333 0 0 1 32.384-27.733333L533.333333 351.189333l111.786667-130.432a21.333333 21.333333 0 1 1 32.426667 27.776L579.690667 362.666667z" fill="#3D3D3D" p-id="3380"></path></svg>