<?xml version="1.0" standalone="no"?><!DOCTYPE svg PUBLIC "-//W3C//DTD SVG 1.1//EN" "http://www.w3.org/Graphics/SVG/1.1/DTD/svg11.dtd"><svg t="1635176138365" class="icon" viewBox="0 0 1025 1024" version="1.1" xmlns="http://www.w3.org/2000/svg" p-id="786" xmlns:xlink="http://www.w3.org/1999/xlink" width="200.1953125" height="200"><defs><style type="text/css"></style></defs><path d="M706.153 66.703a24.5 24.5 0 0 0-17.376 7.197L295.84 466.837c-25.55 25.55-25.55 67.122 0 92.672 0.124 0.124 0.25 0.247 0.376 0.368L703.518 950.09799999c9.8 9.388 25.355 9.056 34.744-0.744s9.057-25.356-0.744-34.74499999l-407.071-390a16.272 16.272 0 0 1-4.653-11.437c0-4.375 1.705-8.49 4.8-11.583L723.53 108.65299999c9.595-9.59699999 9.595-25.15500001 0-34.752a24.5 24.5 0 0 0-17.377-7.19799999z" p-id="787"></path></svg>