<?xml version="1.0" standalone="no"?><!DOCTYPE svg PUBLIC "-//W3C//DTD SVG 1.1//EN" "http://www.w3.org/Graphics/SVG/1.1/DTD/svg11.dtd"><svg t="1634494426115" class="icon" viewBox="0 0 1024 1024" version="1.1" xmlns="http://www.w3.org/2000/svg" p-id="11231" xmlns:xlink="http://www.w3.org/1999/xlink" width="200" height="200"><defs><style type="text/css"></style></defs><path d="M120.8 284a83.2 83.2 0 0 1 83.2-83.2h616a83.2 83.2 0 0 1 83.2 83.2V808a83.2 83.2 0 0 1-83.2 83.2h-616a83.2 83.2 0 0 1-83.2-83.2V284z m83.2-44.8a44.8 44.8 0 0 0-44.8 44.8V808a44.8 44.8 0 0 0 44.8 44.8h616a44.8 44.8 0 0 0 44.8-44.8V284a44.8 44.8 0 0 0-44.8-44.8h-616z" p-id="11232"></path><path d="M332 132.8a19.2 19.2 0 0 1 19.2 19.2v132a19.2 19.2 0 1 1-38.4 0V152a19.2 19.2 0 0 1 19.2-19.2z m364 0a19.2 19.2 0 0 1 19.2 19.2v132a19.2 19.2 0 0 1-38.4 0V152a19.2 19.2 0 0 1 19.2-19.2zM373.44 393.488a19.2 19.2 0 0 1 26.592-5.552l113.552 74.32 110.176-74.176a19.2 19.2 0 0 1 21.44 31.84l-112.272 75.6v41.728h143.072a19.2 19.2 0 1 1 0 38.4h-143.072v69.728l143.216 1.12a19.2 19.2 0 1 1-0.288 38.4l-142.928-1.12V752a19.2 19.2 0 0 1-38.4 0v-68.384H348a19.2 19.2 0 0 1 0-38.4h146.528v-69.568H348a19.2 19.2 0 1 1 0-38.4h146.528V495.68l-115.52-75.616a19.2 19.2 0 0 1-5.552-26.576z" p-id="11233"></path></svg>