<?xml version="1.0" standalone="no"?><!DOCTYPE svg PUBLIC "-//W3C//DTD SVG 1.1//EN" "http://www.w3.org/Graphics/SVG/1.1/DTD/svg11.dtd"><svg t="1634494646439" class="icon" viewBox="0 0 1024 1024" version="1.1" xmlns="http://www.w3.org/2000/svg" p-id="5228" xmlns:xlink="http://www.w3.org/1999/xlink" width="200" height="200"><defs><style type="text/css"></style></defs><path d="M863.41 153.82h-702.3c-53.34 0-96.73 43.39-96.73 96.73V773.7c0 53.34 43.39 96.73 96.73 96.73h702.3c53.34 0 96.73-43.39 96.73-96.73V250.55c0-53.34-43.39-96.73-96.73-96.73z m51.94 619.88c0 28.65-23.3 51.94-51.94 51.94h-702.3c-28.65 0-51.94-23.29-51.94-51.94V250.55c0-28.65 23.29-51.94 51.94-51.94h702.3c28.64 0 51.94 23.29 51.94 51.94V773.7z" p-id="5229"></path><path d="M803.38 691.28H243.54v-380.7c0-12.37-10.02-22.39-22.39-22.39s-22.39 10.03-22.39 22.39v403.09c0 12.38 10.02 22.39 22.39 22.39h582.24c12.38 0 22.39-10.02 22.39-22.39 0-12.38-10.02-22.39-22.4-22.39z" p-id="5230"></path><path d="M333.11 624.1c5.16 0 10.34-1.77 14.56-5.4l141.01-120.86 74.92 74.91c8.75 8.75 22.92 8.75 31.67 0L774.43 393.6c8.75-8.75 8.75-22.92 0-31.67s-22.92-8.75-31.67 0L579.44 525.25l-73.74-73.74c-8.29-8.29-21.54-8.79-30.4-1.17L318.55 584.71c-9.4 8.05-10.5 22.18-2.43 31.56 4.42 5.18 10.69 7.83 16.99 7.83z" p-id="5231"></path></svg>